<?xml version="1.0" encoding="UTF-8"?>
<svg version="1.1" viewBox="0 0 2000 2000" width="1280" height="1280" xmlns="http://www.w3.org/2000/svg">
<path transform="translate(0)" d="m0 0h2e3v2e3h-2e3z" fill="#2D0B38"/>
<path transform="translate(464,735)" d="m0 0 28 1 20 3 22 6 19 8 21 11 14 10 14 12 14 14 13 17 9 16 8 17 6 19 3 16v15l-2 13-5 17-3 7 1 5 8 15 11 17 11 19 10 16 5 10 1 4v7l-5 10-7 6-16 5-6 2 1 5v10l-4 10-2 4-2 12-7 17 1 9v18l-3 10-7 10-9 6-12 4-6 1h-17l-23-4-23-7h-3l-5 12-3 17v14l4 19 4 12 5 10 11 11v2l-18 4-27 3h-55l-31-3-33-6-23-5-2-1v-2l33-14 16-8 15-8-23 5-26 4-20 2h-34l-6-1 1-5 7-10 8-16 12-27 9-25 6-22 3-16v-18l-5-15-7-11-7-7-7-6v-5l7-9 17-16 5-4 4 2 17 7 15 5 18 2h22l21-3 18-6 16-8 11-7 10-8 13-13 8-10 9-15 8-18 4-15 2-15v-25l-3-20-7-21-8-15-9-13-12-13-7-7-16-11-15-8-16-6-13-3-8-1h-31l-18 3-21 7-19 10-12 9-10 9-9 10-9 14-8 15-6 16-3 13-1 11v22l2 18 6 20 9 19 7 11 1 4-8 8-13 10-3 2h-3l-9-19-6-19-4-18-2-22v-13l2-21 4-20 9-27 10-19 8-12 11-14 11-12 11-9 13-10 24-13 21-8 21-5 14-2z" fill="#DBD0DE"/>
<path transform="translate(424,782)" d="m0 0h28l17 3 16 6 14 7 12 8 12 11 9 10 9 14 5 11 4 11 3 13 1 9-3 1-3-16-8-19-3-5 7 16 4 21 1 7v14l-3 20-6 17-8 15-8 11-12 13-13 10-16 9-14 5-13 3-8 1h-22l-17-3-19-6 6 4 7 3v3l-5-1-12-5-14-7h-3l-16 16-8 7-10 9-3 2-1 8-3 5h-3l-7-7-5 1 6 7 5 4-1 3-4 3h-2v2l-3 1-7-6-4-3-5 1 3 1 6 8 2 2-1 4-5 5-4 2-6-7-7-4 3 7 6 6v3l-4 1-1 4-4 3-5-5-4-3h-5l3 5 5 6v4l-4 2-1 3-5-1-6-6-7-1-2 1 11 10 1 4-3 1v2h-3l-1 3-4-1-6-7-6-1 1 4 7 8v4h-2v2l-6 5-7-8-7-4 4 9 5 5-1 3-7 3-8-1-8-5-7-8-1-8h-1l1-10 6-8 8-7 10-9 8-7 14-12 10-9 11-9 10-9 11-9 10-6 7-1v2l5-2 11-10 8-7 14-12 3-1-3-7-11-15-8-16-5-14-3-12-1-7v-26l3-17 4-12 9-19 6-8 7-9 13-13 11-8 14-8 15-6z" fill="#571B63"/>
<path transform="translate(424,782)" d="m0 0h28l17 3 16 6 14 7 12 8 12 11 9 10 9 14 5 11 4 11 3 13 1 9-3 1-3-16-8-19-3-5 7 16 4 21 1 7v14l-3 20-6 17-8 15-8 11-12 13-13 10-16 9-14 5-13 3-8 1h-22l-17-3-19-6 6 4 7 3v3l-5-1-12-5-14-7h-3l-16 16-8 7-10 9-3 2-1 8-3 5h-3l-7-7-5 1 6 7 5 4-1 3-4 3h-2v2l-3 1-7-6-4-3-5 1 3 1 6 8 2 2-1 4-5 5-4 2-6-7-7-4 3 7 6 6v3l-4 1-1 4-4 3-5-5-4-3h-5l3 5 5 6v4l-4 2-1 3-5-1-6-6-7-1-2 1 11 10 1 4-3 1v2h-3l-1 3-4-1-6-7-6-1 1 4 7 8v4h-2v2l-6 5-7-8-7-4 4 9 5 5-1 3-7 3-8-1-8-5-7-8-1-8h-1l1-10 6-8 8-7 10-9 8-7 14-12 10-9 11-9 10-9 11-9 10-6 7-1v2l5-2 11-10 8-7 14-12 3-1-3-7-11-15-8-16-5-14-3-12-1-7v-26l3-17 4-12 9-19 6-8 7-9 13-13 11-8 14-8 15-6zm3 18-15 3-16 6-11 6-9 7-10 9-8 10-8 14-5 11-4 16-1 8v15l2 15 5 16 10 18 9 11 8 8 15 10 17 8 14 4 8 1h18l14-2 16-5 14-7 11-8 10-9 12-16 8-17 4-14 2-14v-13l-3-17-8-21-6-10-9-11-9-9-14-10-12-6-15-5-12-2z" fill="#FDFDFD"/>
<path transform="translate(1616,905)" d="m0 0h46l3 5 20 59 15 43 17 49v2l-3 1h-37l-4-8-5-15-1-4-12 1-44 1-8 24-1 1h-40l-1-2 12-35 15-43 17-50 10-28z" fill="#FCFBFC"/>
<path transform="translate(427,800)" d="m0 0h22l16 3 20 8 13 9 12 11 8 9 8 13 8 21 3 17v13l-3 18-4 12-8 16-9 12-7 8-13 10-10 6-15 6-13 3-9 1h-18l-16-3-15-6-13-7-12-9-9-9-7-10-9-16-5-16-2-15v-15l3-17 5-14 8-15 9-12 8-8 12-9 16-8 15-5zm10 26-17 2-15 5-10 6-11 9-10 14-4 8-3 9-1 5v26l4 13 6 12 8 11 8 8 12 8 13 5 8 2 16 1 18-2 12-5 13-8 9-9 7-10 7-14 4-14v-23l-6-16-8-14-7-8-10-8-14-8-9-3-15-2z" fill="#561A62"/>
<path transform="translate(839,904)" d="m0 0h26l16 4 11 6 8 7 6 10 4 16v4l-2 1h-40l-5-12-5-4-10-1-9 3-3 4-1 3v8l3 6 8 6 18 6 19 6 14 7 8 8 6 12 1 5v13l-3 12-5 9-6 7-11 8-13 5-8 2h-27l-15-4-12-6-9-8-6-10-3-9-1-11 1-1h39l2 2 3 8 4 5 8 3h7l8-3 3-3 3-9-3-9-8-6-21-7-19-6-11-6-7-6-6-10-3-11v-12l3-12 6-10 8-8 14-8z" fill="#FCFCFC"/>
<path transform="translate(346,1042)" d="m0 0h5l11 9 7 8 7 14 3 10 1 7v11l-5 29-8 31h3l-3 10-12 28-2 11 7 4h13l23-3 36-7 21-6 20-9 17-8 5-1v4l-2 3 10-1 2 3 5 30 3 13 2 7 3 9h9v-2h3l1-4-5-16-3-16-2-18 1-10 4-6 8-7 2-3v8l-2 13v14l4 19 4 12 5 10 11 11v2l-18 4-27 3h-55l-31-3-33-6-23-5-2-1v-2l33-14 16-8 15-8-23 5-26 4-20 2h-34l-6-1 1-5 7-10 8-16 12-27 9-25 6-22 3-16v-18l-5-15-7-11-7-7-6-5v-5z" fill="#FAF9FB"/>
<path transform="translate(1139,938)" d="m0 0h37l1 1 1 71 2 9 4 6 6 4 7 2h8l9-3 5-4 4-8 1-6 1-71 1-1h37l1 2v123l-1 1h-35l-3-2-1-13-7 7-10 6-9 3-10 1-15-2-11-5-8-6-7-8-5-10-3-12-1-16v-66z" fill="#FCFBFC"/>
<path transform="translate(1496,937)" d="m0 0h17l12 3 10 6 9 9 7 14 2 7 1 8v79l-2 1h-36l-1-2-1-73-3-9-2-4-4-2-10-3h-7l-10 3-5 5-4 8-1 7-1 69-1 1h-37l-1-5v-97l1-23 1-1h37l1 2v9l-1 5 5-4 5-5 14-7z" fill="#FCFBFC"/>
<path transform="translate(464,735)" d="m0 0 28 1 20 3 22 6 19 8 21 11 14 10 14 12 14 14 13 17 9 16 8 17 6 19 3 16v15l-2 13-5 17-3 7 1 5 8 15 11 17 11 19 10 16 5 10 1 4v7l-5 10-7 6-16 5-6 2 1 5v10l-4 10-2 4-2 12-7 17 1 9v18l-3 10-7 10-9 6-12 4-6 1h-17l-23-4-20-6v-2l-2-1 16-1 16 2 12 2h16l10-3 9-6 4-5v-4l-8 1-10 4-13 2-12-2-1-3 10-7 5-3 15-11 8-7 5-4 3-7h2l1-4 4-8 3-13 3-6 2-1 1-6-1-13v-7l1-2 17-3 8-2 8-5 1-4-3-9-5-6-3-6-3-4-3-7-2-7-12-21-9-15-6-11-2-6 3-7 5-11 3-15v-21l-4-18-8-20-8-16-8-12-9-11-9-10-10-9-18-13-14-8-16-8-24-8-20-4-9-1h-36l-21 3-17 4-12 4-16 7-17 10-10 8-12 11-9 9-3 5-5 5-1 3h-2l-1 4h-2v3h-2l-2 7h-2l-2 6-8 19-7 21-4 20-1 13v23l3 20 6 21 8 20 2 1v3l-5 3h-3l-9-19-6-19-4-18-2-22v-13l2-21 4-20 9-27 10-19 8-12 11-14 11-12 11-9 13-10 24-13 21-8 21-5 14-2z" fill="#FBFAFB"/>
<path transform="translate(433,774)" d="m0 0h7l9 1 6 2 3-1 18 4 13 5 9 5 4 1v2l8 4v2h4l5 6 9 7 6 7v3l4 1v4h2l4 8v2h2v4h2v3h2l3 6 2 5 4 12 4 24-1 3v12l-1 11-3 9-2 10-3 9-2 5h-2l-1 4-2 4h-2l1 3h-2l-2 6-4 6-3 4h-2l-2 4-6 7-7 6h-2v2l-11 7-5 2-1 2-4 2-7 4-11 4-7 2-11 2h-29l-13-1-7-1-5-1v-2l-3 1-2-2h-3l-6-2-4-2-5-3v-2l-3 1-4-3-3-1-3 3h-3l-1 3-3 3h-2v2h-2v3h-2v2h-2l-1 2h-2l-4 5-4 4h-2l-1 6-3 3-2 7-14 15-7 6h-2l-2 4-12 11-10 8h-2v2l-8 7-7 6-7 8-10 9-7 6h-3l-1 3-9 3h-11l-5-2-3-2v-2l-3-1v-2h-2l-5-7v-4h-2l-1-10 2-3 2-9h2l1-4 5-5 13-12 10-9 13-11 12-11 8-7 13-11 14-11 5-3h8l8-5 15-14 3-3 3-1 1-2 7-2-6-8-3-7-2 2-6-10-4-8-3-9-3-8v-3h2v-7l-1 6h-2l-2-3-2-22v-22l2-6 1-8 3-4 2-10 3-5 6-12 6-9 11-14 6-5 1-2h3v-2l14-10 14-8 9-4 18-6 4-1 13-1zm-9 8-20 4-15 6-14 8-13 10-14 14-7 10-6 10-8 18-4 16-1 8v26l3 15 5 16 8 16 9 13 5 7 1 4-4 2-10 9-8 7-14 12-5 2v-2l-7 1-10 6-15 13-11 9-11 10-11 9-14 13-11 9-12 12-3 4-1 10 1 2 1 6 7 8 8 5 8 1 8-4-2-4-5-6-2-6 9 6 5 6 6-5v-2h2l-1-5-7-8v-3l6 1 7 8 4-1v-2h3v-2l3-1-2-5-10-9 6-1 5 3 5 5h4l1-3 4-2-1-6-7-8v-1h5l5 4 4 4 5-4v-3l4-1-1-4-7-8-1-4 9 6 4 5 4-2 5-5 1-4-7-8-1-2-3-1 5-1 10 8 2 1 2-1v-2l4-2 3-2v-2l-8-7-3-4 5-1 6 5 1 2h3l3-5 1-8 8-7 11-10 8-7 9-8 1-2 6 1 17 9 8 3 3-1-1-3-9-4-2-2 18 6 17 3h22l17-3 13-4 16-8 13-9 13-12 10-13 8-14 5-12 4-14 2-15v-14l-3-19-3-12-7-16 8 17 5 13 2 13 3-2-3-17-3-11-7-15-7-11-8-10-11-11-13-9-12-7-15-6-15-4-8-1z" fill="#581D64"/>
<path transform="translate(974,937)" d="m0 0h22l16 4 11 6 10 9 6 8 5 11 1 5-1 1h-40l-7-8-5-2h-13l-8 4-5 7-3 11v17l3 10 5 7 8 4h13l7-4 5-6h40l-1 9-6 11-10 11-14 8-11 4-13 2-17-1-16-5-11-7-10-10-6-10-4-10-2-9-1-16 2-15 4-12 6-10 9-10 8-6 11-5z" fill="#FCFBFC"/>
<path transform="translate(1324,907)" d="m0 0 4 2v29h24l1 1v30l-1 1h-24l1 57 7 3 16 1 1 1v31l-2 1h-21l-16-2-12-6-5-4-5-8-3-12-1-62h-11v-31l1-1h10v-23l1-7z" fill="#FCFBFC"/>
<path transform="translate(430,789)" d="m0 0h13l20 2 14 4 15 6 3 2v2l6 2 3 2v2l4 2 11 9 6 8 5 5 4 8 3 3 7 16 4 21 1 7v14l-3 20-6 17-8 15-8 11-12 13-13 10-16 9-14 5-13 3-8 1h-22l-17-3-18-6v-2l-6-2-14-9-19-19-9-14-7-15v-3h-2l-3-6-2-17v-17l2-20 6-18 9-17 10-14 12-12 14-10 16-8 13-4 9-2zm-3 11-15 3-16 6-11 6-9 7-10 9-8 10-8 14-5 11-4 16-1 8v15l2 15 5 16 10 18 9 11 8 8 15 10 17 8 14 4 8 1h18l14-2 16-5 14-7 11-8 10-9 12-16 8-17 4-14 2-14v-13l-3-17-8-21-6-10-9-11-9-9-14-10-12-6-15-5-12-2z" fill="#F9F8FA"/>
<path transform="translate(437,826)" d="m0 0 14 1 12 3 14 7 9 7 8 7 9 14 5 11 3 9v23l-5 17-8 14-8 10-7 7-12 7-12 5-18 2-16-1-16-5-10-5-10-8-7-7-8-13-5-10-3-11v-26l3-11 4-9 7-11 7-8 11-8 12-6 16-4zm-6 17-16 4-10 6-8 7-10 15-4 12v20l3 11 6 12 11 12 13 8 13 4h18l14-4 11-7 8-7 7-10 4-9 3-13v-10l-2-13-6-12-7-9-10-9-12-6-8-2z" fill="#2D0B38"/>
<path transform="translate(1725,906)" d="m0 0h38l1 149-1 8-1 1h-36l-2-5v-152z" fill="#FCFCFC"/>
<path transform="translate(1124,937)" d="m0 0h5l1 1 1 19v16l-1 3-19 2-9 4-4 5-2 6-1 9-1 61-1 1h-37l-1-26 1-100h37l1 1 1 19 12-13 9-6z" fill="#FCFCFC"/>
<path transform="translate(1368,938)" d="m0 0h37l1 1 1 11v110l-2 4h-36l-1-1-1-29v-21z" fill="#FCFBFC"/>
<path transform="translate(433,860)" d="m0 0h10l12 4 11 7 6 8 4 10 1 11-2 10-4 8-9 10-8 5-12 3h-9l-12-4-9-7-7-8-4-10v-18l4-10 9-10 12-7z" fill="#2D0B38"/>
<path transform="translate(494,1180)" d="m0 0 2 1-3 6 10-1 2 3 5 30 3 13 2 7 3 9h9v-2h3l1-4-5-16v-8l2 4 5 15 3 11-4 2-20 2h-54l-11-1-17-4-5-2-7-2v-4l3-1v-2l9-6 11-9h2v-2l11-7 16-12 10-8-3-1-9 3-3-1 25-12z" fill="#F6F2F7"/>
<path transform="translate(424,782)" d="m0 0h28l17 3 16 6 14 7 12 8 12 11 9 10 9 14 5 11 4 11 3 13 1 9-3 1-3-16-8-19-4-8h-3l-6-11-5-5-6-7-12-9-3-3-6-3v-2l-6-2-14-6-18-4-14-1h-13l-15 2-15 4-16 8-12 8-12 11-7 8-10 16-7 15-4 13-2 20v17l2 17 2 3v3h2l7 16 6 10 7 9 16 16 15 9 4 3-1 1 6 4 7 3v3l-5-1-12-5-14-7h-3l-16 16-8 7-10 9-3 2-1 8-3 5h-3l-7-7-4-2 14-12 14-11 11-10 3-3-5-5-2-1v2l-9 7-5 5-10 9h-5l5-5 1-2-4 2 6-7 8-7 14-12 3-1-3-7-11-15-8-16-5-14-3-12-1-7v-26l3-17 4-12 9-19 6-8 7-9 13-13 11-8 14-8 15-6z" fill="#D8CBDB"/>
<path transform="translate(447,795)" d="m0 0 14 1 18 6 14 7 1 4h4l13 10 7 7 7 10 6 10 4 8 4 13 2 7 1 11v18l-4 22-8 18-7 10-7 8-12 13-11 8-9 5-14 6-11 3-8 1h-12v-1l6-1-15-1 2 2h-9l-15-4-20-8-11-7-4-3v-2l-5-2-7-7v-2h-2l-8-12-3-5v-3h-2l-6-15-2-7-1-15-1-2v-11l2-2 1-9h-1v-8l3-11 10-19 3-5 7-6 1-2 2 1-10 15-8 17-4 16-1 8v15l2 15 5 16 10 18 9 11 7 7 15 10 17 8 14 4 8 1h18l14-2 16-5 14-7 11-8 9-8 12-16 8-17 4-14 2-14v-13l-3-17-8-21-6-10-9-11-8-8-14-10-12-6-15-5-12-2v-1l6-1-6-1v-2z" fill="#DDD3E0"/>
<path transform="translate(294,1050)" d="m0 0h7l6 8 2 2-1 4-5 5-4 2-6-7-7-4 3 7 6 6v3l-4 1-1 4-4 3-5-5-4-3h-5l3 5 5 6v4l-4 2-1 3-5-1-6-6-7-1-2 1 11 10 1 4-3 1v2h-3l-1 3-4-1-6-7-6-1 1 4 7 8v4h-2v2l-6 5-7-8-7-4 4 9 5 5-1 3-7 3-8-1-8-5-7-8-1-6 3 4 2 4 4-1 14-12 12-11 11-9 14-13 8-7h3l2-4z" fill="#D7CADA"/>
<path transform="translate(1384,885)" d="m0 0 10 1 6 3 7 8 3 8-1 10-5 8-7 6-7 2-11-1-9-6-5-8-1-4v-8l3-8 4-5 6-4z" fill="#FCFBFC"/>
<path transform="translate(664,1041)" d="m0 0h6l-3 2-8 2-10 1v14l2 10-6 8-1 10v7l-4 8h-2l-1 4-4 7-1 14 3 5v7l-6 10h-2l-2 4-13 6-8 2h-16l-17-3-10-1v2h-3l3 2-7-1-6-2v-2l-2-1 16-1 16 2 12 2h16l10-3 9-6 4-5v-4l-8 1-10 4-13 2-12-2-1-3 10-7 5-3 15-11 8-7 5-4 3-7h2l1-4 4-8 3-13 3-6 2-1 1-6-1-13v-7l1-2z" fill="#F6F2F7"/>
<path transform="translate(1638,953)" d="m0 0 3 4 16 48v3h-35l-1-3 12-36z" fill="#310C3C"/>
<path transform="translate(307,1013)" d="m0 0h5v2l4 1-8 3-4 1v2l-22 18-7 7-8 7-12 10-11 9-15 14-8 7-7 8-5 9-3-2 1-10 6-8 8-7 10-9 8-7 14-12 10-9 11-9 10-9 11-9 10-6z" fill="#F6F4F7"/>
<path transform="translate(445,791)" d="m0 0h18l14 4 15 6 3 2v2l6 2 3 2v2l4 2 11 9 6 8 5 5 4 8 3 3 7 16 2 16v6l-5-1-5-20-4-10-6-10-10-14-7-7-14-10-1 2-2-3 1-1-16-8-18-6-3-3h-9z" fill="#FAF9FA"/>
<path transform="translate(425,787)" d="m0 0h25l17 3 18 6 7 4-3 1-14-6-18-4-14-1h-13l-15 2-15 4-16 8-12 8-12 11-7 8-10 16-7 15-4 13-2 20v17l2 15-2 2-3-12-1-16 1-18 4-18 5-13 5-10 11-16 11-12 14-10 14-8 16-6 9-2z" fill="#571B63"/>
<path transform="translate(545,871)" d="m0 0h1l3 19v14l-3 20-6 17-8 15-7 10-1-3h-2l-1 2-4 2-3-1 7-7 7-11 7-15 3-9 3-17v-24l2-1 2 1z" fill="#F1ECF2"/>
<path transform="translate(366,1156)" d="m0 0h1v5h3l-3 10-12 28-2 11 7 4h13l16-2h7v1l-20 3-14 1h-18l-2-1 1-9 9-21 6-13z" fill="#F6F2F7"/>
<path transform="translate(643,875)" d="m0 0 2 2 1 4v30l-2 12-5 9-1 8 2 9 6 9 3 6 5 6 2 5 9 13 4 9 7 11 4 5 5 8 1 7-2 6-8 6-4-1 8-5 1-4-3-9-5-6-3-6-3-4-3-7-2-7-12-21-9-15-6-11-2-6 3-7 5-11 3-15v-21z" fill="#F6F2F7"/>
<path transform="translate(483,812)" d="m0 0 5 1 11 8 10 9 9 10 8 13 1 7-3 4h-3l-2-6v-13h-2l-3-5-2 3h-4v-2h-2l-2-5-2-9-1-3-5-1v4l-3 1-6-4-5-7z" fill="#310C3C"/>
<path transform="translate(307,1013)" d="m0 0h5v2l4 1-8 3-4 1v2l-22 18-7 7-8 7-12 10-11 9-15 14-8 7-7 8-5 9-3-2v-6h3l12-13 16-15 15-13 7-6h2v-2l8-7 9-8 4-3h2v-2l10-8 11-9-2-2z" fill="#DCD1DF"/>
<path transform="translate(427,796)" d="m0 0 3 1v1l19 1v1l-22 1-15 3-16 6-11 6-9 7-8 6 1-4 2-4 4-1-2-1 7-6 4-5 5-2 20-7z" fill="#F1ECF2"/>
<path transform="translate(362,833)" d="m0 0 2 1-10 15-8 17-4 16-1 8v25l-1 4h-2l-1-11-1-2v-11l2-2 1-9h-1v-8l3-11 10-19 3-5 7-6z" fill="#DDD2E0"/>
<path transform="translate(430,789)" d="m0 0h13l14 1v1l-10 1h10l2 2v2h-10v2h8l-2 2-28-1 2-2h-8l3-5h-9v-1z" fill="#F2EEF4"/>
<path transform="translate(425,787)" d="m0 0h25l17 3 18 6 7 4-3 1-14-6-18-4-14-1h-13l-15 2-15 4-16 8-7 3v-3l14-8 16-6 9-2z" fill="#561A62"/>
<path transform="translate(294,1050)" d="m0 0h7l6 8 2 2-1 4-5 5-4 2-6-7-7-4-2-1z" fill="#DBD0DE"/>
<path transform="translate(301,1016)" d="m0 0h5l-5 5-10 9-5 4h-2v2l-12 9-9 9h-2v2l-3 1h-3l-3 3-2-1 13-12 11-9 10-9 11-9z" fill="#F6F3F7"/>
<path transform="translate(312,1035)" d="m0 0 2 1v3l8 8 2 1-1 3-4 3h-2v2l-3 1-7-6-4-3h-5l5-5z" fill="#D2C4D6"/>
<path transform="translate(457,988)" d="m0 0h3 9l2 1v2l-16 4-9 1h-18l-2-2 1-5 9 1 4 2h11l3-2h3z" fill="#340D3F"/>
<path transform="translate(1397,933)" d="m0 0 5 1v2l5 2v10h-1l-1-9-36-1 4-3 5-1h2l9 1 4-1z" fill="#561A62"/>
<path transform="translate(459,803)" d="m0 0 9 1 6 3-2 1v2l3 1v5l-10-3-2-2v-3h-2v-4z" fill="#310C3C"/>
<path transform="translate(535,1166)" d="m0 0h1v8l-2-2-3 5h-2l-5 10v15l2 11v5l-2-4-2-9-1-14 1-9 4-6 8-7z" fill="#F5F0F6"/>
<path transform="translate(427,796)" d="m0 0 3 1v1l19 1v1l-22 1-11 1-4-1-13 4-3 1v-2l9-4 16-3z" fill="#DCD1DF"/>
<path transform="translate(523,943)" d="m0 0 1 4-7 10-7-1 3-8h2v-2z" fill="#300C3B"/>
<path transform="translate(352,795)" d="m0 0h2l-1 3-8 7-7 7-12 17-1-3 9-13 3-5 8-7z" fill="#F5F2F6"/>
<path transform="translate(501,964)" d="m0 0h8l-2 5-7 6-5-1 1-5 1-2h2v-2z" fill="#300C3B"/>
<path transform="translate(559,1155)" d="m0 0 12 1 4 2-4 1-10-1v2h-3l3 2-7-1-6-2v-2l-2-1z" fill="#F1ECF3"/>
<path transform="translate(457,988)" d="m0 0h3 9l2 1v2l-16 4h-6l5-5h3z" fill="#360E41"/>
<path transform="translate(362,833)" d="m0 0 2 1-10 15-4 8-1-2h-2l2-5 4-8 8-7z" fill="#DCD1DF"/>
<path transform="translate(458,742)" d="m0 0h13l10 2v1l-37 1 1-2z" fill="#F6F2F7"/>
<path transform="translate(535,897)" d="m0 0h1v9l-2 5h-6l1-9 4-4z" fill="#2D0B38"/>
<path transform="translate(529,865)" d="m0 0h2l3 9v9l-3 1-2-7z" fill="#340D3F"/>
<path transform="translate(406,984)" d="m0 0h4v2l4 1 2 1v4h-7l-4-2 1-3-2-1h2z" fill="#300C3B"/>
<path transform="translate(478,980)" d="m0 0h7l2 4-6 3h-5v-5z" fill="#330D3E"/>
<path transform="translate(412,800)" d="m0 0h7l-3 1v2l-13 4h-5l1-3 5-2z" fill="#EFEAF0"/>
<path transform="translate(337,877)" d="m0 0 4 1-2 16-3 1-1-13z" fill="#F6F2F7"/>
<path transform="translate(532,920)" d="m0 0h1l-1 9-4 8-1-2-1-7 2-4h2z" fill="#350E41"/>
<path transform="translate(430,997)" d="m0 0 17 1-3 4h-10l-5-3z" fill="#F6F2F7"/>
<path transform="translate(534,949)" d="m0 0 1 2-7 11-4 4v-5l6-10z" fill="#EFEBF1"/>
<path transform="translate(301,1016)" d="m0 0h5l-5 5-8 7h-2l2-4 6-7z" fill="#F8F5F8"/>
<path transform="translate(327,1006)" d="m0 0v3l-5 5 2 2-3 2-4-1-1-3 4-4 5-2z" fill="#F1ECF2"/>
<path transform="translate(347,855)" d="m0 0h2l-1 7-4 6-2-3 2-6z" fill="#DFD6E2"/>
<path transform="translate(352,795)" d="m0 0h2l-1 3-8 7-6 5h-2v-2l8-7z" fill="#F1EDF2"/>
<path transform="translate(296,1019)" d="m0 0 2 1-6 6-1 4-2-2-5 5h-2l-1 2v-3l10-9z" fill="#ECE5ED"/>
<path transform="translate(365,829)" d="m0 0 3 1-3 3h-3l-2 4-6 4 2-5 5-5z" fill="#F3EEF4"/>
<path transform="translate(385,799)" d="m0 0h4l-1 3-7 4-5 1 1-3z" fill="#4D1758"/>
<path transform="translate(252,1094)" d="m0 0 6 4 6 5v1h-5l-3-3v-2l-4-2z" fill="#571B63"/>
<path transform="translate(272,1075)" d="m0 0h5l3 5-3 1-4-1-2-4z" fill="#3B1046"/>
<path transform="translate(288,1063)" d="m0 0 5 2 2 4-1 1 2 1v2l-4-2-4-4z" fill="#390F45"/>
<path transform="translate(263,1047)" d="m0 0 2 1-5 6 1 2-3 1h-3l-3 3-2-1z" fill="#EBE5ED"/>
<path transform="translate(1224,1048)" d="m0 0h1l1 14 2 2-5-1-1-5h2l-1-5-2-2z" fill="#571B63"/>
<path transform="translate(265,1047)" d="m0 0h3l-2 4-5 4-2-2z" fill="#FCFBFC"/>
<path transform="translate(376,820)" d="m0 0 2 1-9 8-1-3 3-5z" fill="#EBE4ED"/>
<path transform="translate(271,1040)" d="m0 0 2 1-2 5-3 2-3-2z" fill="#EEE9F0"/>
</svg>
