<?xml version="1.0" encoding="UTF-8"?>
<svg version="1.1" viewBox="0 0 2048 774" width="1280" height="1280" xmlns="http://www.w3.org/2000/svg">
<path transform="translate(0)" d="m0 0h2048v774h-2048z" fill="#2D0C39"/>
<path transform="translate(440,88)" d="m0 0h28l29 3 18 4 25 9 25 12 14 9 12 9 11 10 8 7 12 13 13 18 10 17 9 21 5 17 3 15v20l-3 18-4 13-4 9 1 5 8 16 7 10 6 11 8 13 11 18 6 9 5 12v11l-4 8-7 7-8 4-17 4-3 1 2 8v9l-2 7-4 9-1 9-3 8-5 12-1 1v8l1 4v21l-4 11-8 11-10 6-7 3-9 2h-26l-20-4-19-5-12-4-2 6-4 11-2 8v28l6 25 5 12 6 8 9 9v2l-16 4-26 3-9 1h-59l-32-3-28-5-26-5-13-3-1-3 15-6 13-6 12-5 22-11 12-7-18 5-17 3-27 4-19 2h-36l-7-1 1-5 9-14 8-16 9-21 4-9 6-15 6-18 4-17 4-20v-20l-4-13-5-10-9-11-11-9 1-7 6-8 10-10 16-14 6 4 6 2v2l5 1 15 5 7 2 17 2h32l16-2 19-6 16-7 14-8 12-9 21-21 10-14 11-21 7-21 3-16v-35l-2-18-7-21-7-15-7-12-9-12-12-13-12-10-14-9-15-8-19-7-12-3-8-1h-39l-18 3-17 5-16 7-16 10-12 9-16 16-10 15-10 18-8 21-3 12-1 11v29l3 21 5 16 7 17 10 17 3 7-4 5-14 11-10 7-4-4-7-15-7-21-5-21-2-13-1-23 2-25 5-25 6-20 8-18 10-18 10-14 9-11 11-12 8-7 10-8 15-10 14-8 15-7 21-7 24-5z" fill="#DFD7E3"/>
<path transform="translate(414,139)" d="m0 0 26 1 2 1 13 2 19 7 12 6v2l5 1 11 7 12 11 9 9 7 10 8 14 8 20 1 12h-2l-10-25-7-13-7-9-15-16-8-7-15-10-14-7-10-4-21-4-12-1h-13l-18 2-16 4-9 4-15 8-14 10-10 9-6 7-10 15-6 10-6 14-4 18-2 19v10l2 20 6 19 11 23 4 5v-4l-6-10-9-19-3-10-2-12v-32l3-17 4-10 5-12 6-11 10-14 9-10 8-8 10-7 14-8 6-3 17-5 10-2h35l13 2 17 5 14 6 14 9 11 9 9 9 10 13 8 14 5 14 2 6 3 17v31l-4 18-4 11-8 17-12 17-16 16-14 10-16 8-11 5-25 5h-32l-17-5-12-4-5-2-7-1 8 4 1 2h-3l4 2-2 1-10-4-10-6-4 1-12 12-8 7-11 10-8 7-2 2-1 8-3 5-3 1-9-8-5 1v3l4 2 7 6-1 5-8 7-7-6-8-5v3l9 11-2 4-7 8h-3l-7-8-6-3 2 5 7 9v3l-9 7-4-1-7-6-5-1 1 4 4 5 4 3-1 5-5 5h-5l-8-7-2-1h-6l3 5 4 3v2l4 2 2 4-6 4-4 3-4-2-7-8h-5l1 5 8 9-1 4h-2l-2 4-3 4h-3l-2-5-5-4v-2l-6-1 1 7h2l6 7v2l-6 4-9 1-12-6-7-8-3-10h-1v-7l5-10 12-12 11-9 12-11 8-7 14-12 10-9 11-9 15-13 11-7 9-2 1 2 4-1 15-13 12-11 8-7 5-5-2-6-12-17-5-9-6-11-6-20-2-13v-36l6-23 9-19 3-7 8-11 5-5 3-5 3-1v-2l12-9 2-3h3v-2h3l2-4h4l1-3 9-5 10-4 9-3 17-4z" fill="#561E63"/>
<path transform="translate(435,99)" d="m0 0h41l20 3 23 6 16 6 9 4 10 5v2l9 3 3 2v2h3v2h3l1 2 3 1 11 15v2h2l8 10 11 14 8 13 1 9-4 13-8 17-10 15-6 10-5 13-8 18-4 10-4 26-7 26-8 16-8 14-8 12-6 8h-2l-2 4-12 11-16 11-15 9-4 2-10 1-19 4-13 1-22-3-24-6-20-8-11-5h-5l-12 11-9 6-5-1-5-5-6-1-2 1 2-5 7-8 7-7 16-14 6 4 6 2v2l5 1 15 5 7 2 17 2h32l16-2 19-6 16-7 14-8 12-9 21-21 10-14 11-21 7-21 3-16v-35l-2-18-7-21-7-15-7-12-9-12-12-13-12-10-14-9-15-8-19-7-12-3-8-1h-39l-18 3-17 5-16 7-16 10-12 9-16 16-10 15-10 18-8 21-3 12-1 11v29l3 21 5 16 7 17 10 17 3 7-4 5-14 11-3 2-3-3-5-11-8-22-5-20-2-22v-12l2-23 2-11 2-6 6-22 5-12 11-23 10-15 9-11 16-17 8-7h2v-2l5-4h2v-2h3v-2h3v-2l5-1v-2l7-4h4v-2l10-4 11-5 17-5 17-3 9-2z" fill="#C9BACF"/>
<path transform="translate(414,139)" d="m0 0 26 1 2 1 13 2 19 7 12 6v2l5 1 11 7 12 11 9 9 7 10 8 14 8 20 1 12h-2l-10-25-7-13-7-9-15-16-8-7-15-10-14-7-10-4-21-4-12-1h-13l-18 2-16 4-9 4-15 8-14 10-10 9-6 7-10 15-6 10-6 14-4 18-2 19v10l2 20 6 19 11 23 4 5v-4l-6-10-9-19-3-10-2-12v-32l3-17 4-10 5-12 6-11 10-14 9-10 8-8 10-7 14-8 6-3 17-5 10-2h35l13 2 17 5 14 6 14 9 11 9 9 9 10 13 8 14 5 14 2 6 3 17v31l-4 18-4 11-8 17-12 17-16 16-14 10-16 8-11 5-25 5h-32l-17-5-12-4-5-2-7-1 8 4 1 2h-3l4 2-2 1-10-4-10-6-4 1-12 12-8 7-11 10-8 7-2 2-1 8-3 5-3 1-9-8-5 1v3l4 2 7 6-1 5-8 7-7-6-8-5v3l9 11-2 4-7 8h-3l-7-8-6-3 2 5 7 9v3l-9 7-4-1-7-6-5-1 1 4 4 5 4 3-1 5-5 5h-5l-8-7-2-1h-6l3 5 4 3v2l4 2 2 4-6 4-4 3-4-2-7-8h-5l1 5 8 9-1 4h-2l-2 4-3 4h-3l-2-5-5-4v-2l-6-1 1 7h2l6 7v2l-6 4-9 1-12-6-7-8-3-10h-1v-7l5-10 12-12 11-9 12-11 8-7 14-12 10-9 11-9 15-13 11-7 9-2 1 2 4-1 15-13 12-11 8-7 5-5-2-6-12-17-5-9-6-11-6-20-2-13v-36l6-23 9-19 3-7 8-11 5-5 3-5 3-1v-2l12-9 2-3h3v-2h3l2-4h4l1-3 9-5 10-4 9-3 17-4zm-6 21-20 4-19 8-16 11-13 12-9 12-8 14-4 8-5 14-2 11v30l5 22 8 17 7 10 7 9 10 10 14 10 16 8 10 4 19 4h23l18-3 18-6 16-9 13-11 9-9 12-17 8-19 4-14 2-14v-15l-3-17-5-15-8-17-10-13-13-13-5-4h-2v-2l-17-10-9-4-13-4-13-2z" fill="#FCFCFC"/>
<path transform="translate(1732,277)" d="m0 0h52l7 19 15 44 3 10 4 10 4 13 4 10 4 13 4 10 7 22 5 12 3 11v2h-44l-4-6-6-20-1-3h-63l-3 10-6 19h-46l1-6 11-32 3-8 7-21 3-8 6-18 3-8 6-18 3-7 6-19 3-7 4-13 4-10z" fill="#FCFBFC"/>
<path transform="translate(408,160)" d="m0 0h25l16 3 12 4 16 8 8 5v2l4 2 10 9 8 8 8 11 8 17 5 15 3 17v15l-3 19-7 19-7 14-11 14-11 11-14 10-14 7-15 5-18 3h-23l-19-4-19-8-16-10-13-12-8-9-7-11-8-16-5-18-1-6v-30l3-13 4-12 10-19 10-14 9-9 12-9 9-6 19-8zm7 29-21 4-16 7-11 8-11 11-7 11-6 13-2 8-1 11v16l4 17 7 14 8 12 4 5 13 10 8 5 17 6 14 2h13l14-2 12-4 11-6 10-7 7-8 7-10 7-12 5-15 1-6v-24l-6-17-6-11-8-11-7-7-15-10-13-6-13-3-8-1z" fill="#561E63"/>
<path transform="translate(874,275)" d="m0 0h16l13 2 12 4 11 6 9 8 7 12 4 16v5l-1 1h-46l-4-11-4-5-6-3h-11l-6 3-5 6v13l4 6 5 4 14 6 25 7 12 5 11 7 8 9 5 10 1 4v18l-2 9-4 9-6 8-7 7-13 8-13 4-10 2h-25l-19-5-11-6-10-9-6-8-5-13-1-13h45l4 10 5 6 6 3h15l8-5 3-6v-9l-4-8-5-4-15-6-16-4-8-3-13-5-8-5-8-7-8-16-1-5v-17l3-11 7-11 9-9 13-8 12-4z" fill="#FBFBFC"/>
<path transform="translate(1200,314)" d="m0 0h42l1 1 1 80 4 12 5 5 7 4 5 1h9l7-2 6-3 6-7 2-5 1-86h43l1 1v138h-42l-1-1v-16l-8 7-8 6-8 4-7 2h-22l-16-6-11-8-8-10-4-8-3-9-2-14z" fill="#FBFAFB"/>
<path transform="translate(1595,313)" d="m0 0h27l13 5 12 9 9 13 4 9 3 16v87l-1 1h-42l-1-82-4-11-5-5-8-4h-18l-8 4-6 8-2 4-1 21-1 65-2 1h-39l-2-1v-138l1-1h42l1 1v16l5-5 9-7 10-5z" fill="#FBFBFC"/>
<path transform="translate(319,428)" d="m0 0 7 2 5 5 8 7 7 10 6 13 3 12 1 16-5 29-9 36-2 10-5 13-5 11-9 23v8l34-2 30-5 38-8 18-6 36-16 3 1-2 4-4 3v2l16-1 4 16 6 29 3 12 4 6 7 2 11-2 1-1-1-9-6-19-4-21-1-13 2-10 3-5 6-5 4-4v7l-1 4v28l6 25 5 12 6 8 9 9v2l-16 4-26 3-9 1h-59l-32-3-28-5-26-5-13-3-1-3 15-6 13-6 12-5 22-11 12-7-18 5-17 3-27 4-19 2h-36l-7-1 1-5 9-14 8-16 9-21 4-9 6-15 6-18 4-17 4-20v-20l-4-13-5-10-9-11-11-9v-5z" fill="#F9F8FA"/>
<path transform="translate(413,133)" d="m0 0h13l3 1 15 1 16 3 17 6 15 8 12 8 11 9v2h2v2l4 2 7 8 8 11 2 5 9 14 6 16 3 12 2 14v23l-2 17-2 5-4 16-8 17-10 17-9 11-14 14-7 6-7 4-5 3-19 10-16 5-9 2h-38l-17-3-8-2-16-6-18-10h-2l-6 4h-2l-2 4-10 8-6 7h-2v2h-2v3l-4 4-2 5h-2v2l-2 1-1 7-7 9-5 6-11 9-12 12-8 7-10 8-3 1-2 4-14 12-7 8-10 9-9 8-10 6-6 2h-7l-10-4-8-6-4-7v-3h-3l-2-3-1-11 3-8 6-8v-3l15-14 8-7 10-9 11-9 11-10 8-7 11-10 11-9 13-10 7-1 6-1 8-4 15-14 11-10h4v-2h4l-1-4-2-1 1-2h-3l-4-10-5-7 1 7-4-5-8-16-5-12-3-10-2-11-1-12v-26h2v-7l2-10 3-8 2-7h2l2-9 11-19 9-11 5-6h2l1-3 10-8h2v-2l13-9 13-8 17-7 19-5zm1 6-18 2-16 4-10 4-14 7-1 3-5 1-1 3h-3v2l-4 1-5 5-8 6v2l-4 2-4 7-5 4-8 12-5 13-5 10-6 23v36l3 17 4 11 2 6 8 16 9 13 6 8 1 5-11 11-8 7-10 9-11 9-4 1-1-2-9 2-12 8-15 13-11 9-12 11-11 9-14 13-11 9-15 14-6 8-2 5v7h1l3 10 7 8 12 6 9-1 6-4-2-4-4-5h-2l-1-7 6 1 2 4 3 2 2 5 4-1 4-5v-2h2l1-4-9-11v-3h5l9 10 5-2 5-4 2-1-2-4-4-2-1-3-5-4-1-3h6l6 4 4 4h5l6-7-1-4-8-8v-3l5 1 8 7 5-1 7-6-1-4-7-9-1-4 8 5 5 6 4-1 8-9-2-4-8-11h3l10 7 3 3 8-7 1-5-9-8h-2l1-4 5 1 8 7 3-1 3-5 1-8 8-8 11-9 8-8 8-7 7-7 5 1 12 7 8 2-1-2-2-1 2-1-6-4-2-1 9 2 11 4 13 4 7 2h32l25-5 24-11 14-10 10-9 10-10 12-18 10-22 3-11 2-11v-31l-3-17-5-15-7-14-9-13-12-13-9-8-10-7-16-8-14-5-11-3-10-1h-35l-16 4-11 3-12 6-8 5-12 9-13 13-12 17-9 17-5 15-2 5-2 13v32l3 15 4 11 10 21 4 5-1 3-6-9-10-21-5-17-2-20v-10l2-19 4-18 7-16 10-16 9-12 9-9 17-12 16-9 11-4 20-4 11-1h13l19 2 16 4 19 8 15 10 10 8 10 10 7 8 8 11 8 16 6 17 1 2h2l-1-12-8-20-6-11-7-10-9-10-10-10-13-9-3-2h-4v-2l-19-9-16-5-9-1-2-1z" fill="#571F64"/>
<path transform="translate(440,88)" d="m0 0h28l29 3 18 4 25 9 25 12 14 9 12 9 11 10 8 7 12 13 13 18 10 17 9 21 5 17 3 15v20l-3 18-4 13-4 9 1 5 8 16 7 10 6 11 8 13 11 18 6 9 5 12v11l-4 8-7 7-8 4-17 4-3 1 2 8v9l-2 7-4 9-1 9-3 8-5 12-1 1v8l1 4v21l-4 11-8 11-10 6-7 3-9 2h-26l-20-4-19-5-3-1v-3l15-1 35 5 13-1 13-4 8-6 5-6 2-4v-5l-7 1-13 5-10 1-4-2 2-4 12-11 11-9 4-2 2-4 8-14 4-10 3-16 5-7 1-10-1-19 2-2 18-3 12-4 5-3 2-3v-8l-5-12-11-18-7-14-13-21-8-13-6-12-1-3v-9l6-15 3-13 1-9v-15l-3-15-5-17-10-23-9-15-14-19-7-7v-2l-4-2-7-7-16-12-4-2v-2h-3v-2h-3v-2l-5-2-7-3v-2l-6-2-12-5-11-5-24-7-16-3-9-1h-41l-16 2-12 3-9 2-15 4-11 5-10 3v2l-7 3-4 1v2l-5 1v2h-3v2h-3v2l-5 4h-2v2l-9 7-9 9-7 8-10 12-11 18-9 19-5 12-7 27-2 6-2 14-1 15v12l2 22 6 23 9 24 3 6v2l2 1-8 5-5-8-5-11-7-21-5-21-2-13-1-23 2-25 5-25 6-20 8-18 10-18 10-14 9-11 11-12 8-7 10-8 15-10 14-8 15-7 21-7 24-5z" fill="#F9F7F9"/>
<path transform="translate(1021,312)" d="m0 0h17l16 3 11 5 10 6 11 11 8 14 2 6v4h-45l-7-8-6-3h-14l-9 4-6 7-4 12v22l4 11 4 6 9 5h16l8-5 5-6h45l-2 9-6 12-11 12-10 7-8 4-8 3-9 2h-26l-14-4-12-6-11-9-8-10-6-11-3-10-2-12v-21l3-14 4-10 7-11 11-11 11-7 13-5z" fill="#FBFAFB"/>
<path transform="translate(1367,280)" d="m0 0h44v34h28v35h-28l1 64 8 3 18 1 1 1v34l-1 1h-34l-12-3-11-6-7-8-4-8-2-10-1-69-2 1h-9l-2-2v-33l1-1h12z" fill="#FCFBFC"/>
<path transform="translate(402,149)" d="m0 0h35l13 2 17 5 14 6 14 9 11 9 9 9 10 13 8 14 5 14 2 6 3 17v31l-4 18-4 11-8 17-12 17-16 16-14 10-16 8-11 5-25 5h-32l-17-5-12-4-16-8-10-7-10-9-12-13-9-14-10-21-3-10-2-12v-32l3-17 4-10 5-12 6-11 10-14 9-10 8-8 10-7 14-8 6-3 17-5zm6 11-20 4-19 8-16 11-13 12-9 12-8 14-4 8-5 14-2 11v30l5 22 8 17 7 10 7 9 10 10 14 10 16 8 10 4 19 4h23l18-3 18-6 16-9 13-11 9-9 12-17 8-19 4-14 2-14v-15l-3-17-5-15-8-17-10-13-13-13-5-4h-2v-2l-17-10-9-4-13-4-13-2z" fill="#F9F8FA"/>
<path transform="translate(415,189)" d="m0 0h11l18 3 12 5 12 7 10 8 8 9 8 13 5 12 3 9v24l-3 12-5 13-9 14-9 10-5 5-13 8-12 5-9 2-9 1h-13l-14-2-17-6-11-7-10-8-8-11-8-13-5-14-2-10v-16l2-15 5-13 6-11 11-12 8-7 14-8 12-4zm-3 19-15 4-8 4-9 7-7 7-9 14-4 12-1 17 3 16 4 10 8 11 9 9 14 8 7 3 5 1h23l15-5 12-7 11-11 8-13 4-13 1-14-2-16-5-12-9-12-9-9-11-7-9-3-6-1z" fill="#2D0C39"/>
<path transform="translate(1852,278)" d="m0 0h44v175h-43l-1-4z" fill="#FBFAFB"/>
<path transform="translate(1180,313)" d="m0 0h11v43l-23 2-9 5-3 4-1 3h-2l-1 6-1 77-3 1h-39l-1-1v-139h43l1 22 12-13 11-8z" fill="#FBFBFC"/>
<path transform="translate(417,102)" d="m0 0h16l19 2 28 1 9 3 8 3 4 4 4 7 2 3 1 8-2 7-3 2h-6l-8-4-2 1-16-7-21-6-8-1h-39l-18 3-17 5-16 7-16 10-12 9-16 16-10 15-10 18-8 21-3 12-1 11v29l3 21 5 16 7 17 10 17 3 7-4 5-14 11-3 2-3-3-5-11-8-22-5-20-2-22v-12l2-23 2-11 2-6 6-22 5-12 11-23 10-15 9-11 16-17 8-7h2v-2l5-4h2v-2h3v-2h3v-2l5-1v-2l7-4h4v-2l10-4 11-5 17-5z" fill="#BCA8C3"/>
<path transform="translate(1456,314)" d="m0 0h42v139l-2 1h-39l-2-5v-133z" fill="#FBFBFC"/>
<path transform="translate(415,227)" d="m0 0h11l13 4 10 6 6 5 5 8 4 13v12l-4 12-7 10-8 7-10 5-7 2h-16l-11-5-9-6-9-11-4-11v-16l4-12 6-8 9-8 10-5z" fill="#2D0C39"/>
<path transform="translate(560,315)" d="m0 0 1 2h2l1-2v9l-4 17-6 17-10 18-10 14-9 10-11 10-30 18-17 6-13 3-14 1-18-1-17-3-15-5-9-1-20-9h-5l-12 11-9 6-5-1-5-5-6-1-2 1 2-5 7-8 7-7 16-14 6 4 6 2v2l5 1 15 5 7 2 17 2h32l16-2 19-6 16-7 14-8 12-9 21-21 10-14 11-21z" fill="#BBA7C3"/>
<path transform="translate(477,586)" d="m0 0 3 1-2 4-4 3v2l16-1 4 16 6 29 3 12 4 6 7 2 11-2 1-1-1-9-1-6 2 3 3 8v5l-6 3-21 2h-51l-29-3-14-4-5-3 1-5 14-12 11-11 38-28v-3h-6l2-2z" fill="#F5F3F7"/>
<path transform="translate(413,145)" d="m0 0h13l19 2 16 4 19 8 15 10 10 8 11 11 7 8 8 11 8 16 6 17v2h2l-1-2v-6l2 3 4 20v30l-5 22-8 19-10 16-11 12-12 12-13 10-15 9-21 8-17 4-8 1h-23l-17-3-21-7-2-2-3-2-3-3h3l-7-4 2-1 9 2 11 4 13 4 7 2h32l25-5 24-11 14-10 10-9 9-9 12-18 10-22 3-11 2-11v-31l-3-17-5-15-7-14-9-13-12-13-12-10-15-9-21-8-11-3-10-1h-35l-16 4-11 3-12 6-8 5-12 9-12 12-12 17-9 17-5 15-2 5-2 13v32l3 15 4 11 10 21 4 5-2 4-6-8-11-23-5-17-2-20v-10l2-19 4-18 7-16 10-16 9-12 10-10 17-12 16-9 11-4 20-4z" fill="#855C90"/>
<path transform="translate(414,139)" d="m0 0 26 1 2 1 13 2 19 7 12 6v2l5 1 11 7 12 11 9 9 7 10 8 14 8 20 1 12h-2l-10-25-7-13-7-9-15-16-8-7-15-10-14-7-10-4-21-4-12-1h-13l-18 2-16 4-9 4-15 8-14 10-10 9-6 7-10 15-6 10-6 14-4 18-2 19v10l2 20 6 19 11 23 4 5h4l9 11 10 10 14 10 8 4-4 1 8 5-2 1 3 2-2 1-10-4-10-6-4 1-12 12-8 7-11 10-8 7-2 2-1 8-3 5-3 1-9-8h-6l5-5 13-11 14-11 11-10 6-5v-3l-8-5-2-6 5-5-2-6-12-17-5-9-6-11-6-20-2-13v-36l6-23 9-19 3-7 8-11 5-5 3-5 3-1v-2l12-9 2-3h3v-2h3l2-4h4l1-3 9-5 10-4 9-3 17-4z" fill="#CDBFD3"/>
<path transform="translate(427,154)" d="m0 0h8l19 4 16 6 14 8 13 10 12 11 9 12 9 16 4 10 4 15 2 16v13l-5 27-7 16-6 11-8 11-7 7-7 8-9 8-15 9-14 6-14 4-14 2h-9l3-2-14-2v2h-8l-19-5-19-8-14-9-10-9-9-9-10-15-8-16-4-13-2-13v-14h1l2-16h1l1 29 5 22 8 17 7 10 7 9 9 9 14 10 16 8 10 4 19 4h23l18-3 18-6 16-9 13-11 8-8 12-17 8-19 4-14 2-14v-15l-3-17-5-15-8-17-10-13-12-12-7-5v-2l-5-2-14-8-7-3-13-4-13-2 4-3h-5z" fill="#DDD4E1"/>
<path transform="translate(280,423)" d="m0 0 2 1v3l4 2 7 6-1 5-8 7-7-6-8-5v3l9 11-2 4-7 8h-3l-7-8-6-3 2 5 7 9v3l-9 7-4-1-7-6-5-1 1 4 4 5 4 3-1 5-5 5h-5l-8-7-2-1h-6l3 5 4 3v2l4 2 2 4-6 4-4 3-4-2-7-8h-5l1 5 8 9-1 4h-2l-2 4-3 4h-3l-2-5-5-4v-2l-6-1 1 7h2l6 7v2l-6 4-9 1-12-6-7-8h3 4l15-13 10-9h2v-2l11-9 13-12 11-9 12-11 22-18z" fill="#AE95B6"/>
<path transform="translate(273,249)" d="m0 0h2l1 32 3 21 5 16 7 17 10 17 3 7-4 5-14 11-3 2-3-3-5-11-8-22-5-20-2-22v-12l2-23 2-11h1v12l2 20 3-2v-25l1-7z" fill="#C9BACF"/>
<path transform="translate(394,112)" d="m0 0 11 1 3 3-1 2 20 2-1 3h7v1l-30 1-18 3-17 5-16 7-16 10-12 9-16 16-10 15-10 18-8 21-3 12-1 11-1-3-3 2-1 7v26l-4 1-2-12-1-14 3-16 5-18 5-12 11-23 10-15 9-11 16-17 8-7h2v-2l12-6 14-8 18-8 9-2 3-1z" fill="#AD94B5"/>
<path transform="translate(1471,255)" d="m0 0h12l8 4 5 4 5 8 1 3v11l-4 9-5 6-9 5h-15l-7-4-8-9-2-5v-14l5-9 7-6z" fill="#FBFAFB"/>
<path transform="translate(316,342)" d="m0 0 5 5-1-3 1-2 3 1 9 11 10 10 14 10 8 4-4 1 8 5-2 1 3 2-2 1-10-4-10-6-4 1-12 12-8 7-11 10-8 7-2 2-1 8-3 5-3 1-9-8h-6l5-5 13-11 14-11 11-10 6-5v-3l-8-5-2-6 5-5-2-6-4-8-3-4z" fill="#A98FB2"/>
<path transform="translate(1756,330)" d="m0 0 2 1 4 10 10 29 5 17 1 4h-41l3-10 11-33z" fill="#32103E"/>
<path transform="translate(414,149)" d="m0 0h23l13 2 17 5 14 6 14 9 11 9 9 9 10 13 8 14 5 14 2 6 2 14v31h-1l-3-25h-2l-6-25-5-12-8-14-10-13-12-11-16-11-16-8-17-5-20-4-2-2-10-1z" fill="#FBFAFB"/>
<path transform="translate(278,397)" d="m0 0h2l3 4-7 2-4 2-5 5-14 12-8 7-11 10-8 7-10 8-7 6h-2v2l-7 6h-2v2l-8 6-16 16-5 6-3 5-1 7h-1l-1-5h-1v-7l5-10 12-12 11-9 12-11 8-7 14-12 10-9 11-9 15-13 11-7z" fill="#F5F3F6"/>
<path transform="translate(680,427)" d="m0 0 3 1-12 4-16 2 1 16 1 11-6 11-1 17-3 6-6 11-2 5v12l1 4v10l-5 10-5 5-4 2 6-7 4-7v-5l-7 1-13 5-10 1-4-2 2-4 12-11 11-9 4-2 2-4 8-14 4-10 3-16 5-7 1-10-1-19 2-2 18-3z" fill="#F5F3F7"/>
<path transform="translate(204,488)" d="m0 0 8 2-3 3-3 1 1 5 8 9-1 4h-2l-2 4-3 4h-3l-2-5-5-4v-2l-6-1 1 7h2l6 7v2l-6 4-9 1-12-6-7-8h3 4l15-13 10-9h2v-2z" fill="#AA90B2"/>
<path transform="translate(311,255)" d="m0 0h1l1 29 5 22 8 17 7 10 7 9 9 9 14 10 16 8 10 4 22 5v4h-8l-19-5-19-8-14-9-10-9-9-9-10-15-8-16-4-13-2-13v-14h1z" fill="#D9D0DE"/>
<path transform="translate(280,423)" d="m0 0 2 1v3l4 2 7 6-1 5-8 7-7-6-8-5v3l9 11-2 4-7 8h-3l-7-8-6-3-1 3-4-2-6 6h-2v2h-2l1-3 11-9 10-9 9-7z" fill="#A88DB0"/>
<path transform="translate(446,142)" d="m0 0 9 1 19 7 12 6v2l5 1 11 7 12 11 9 9 7 10 8 14 8 20 1 12h-2l-10-25-7-13-7-9-13-14h3l4 3-13-12-18-12-9-5-21-7-14-3v-2z" fill="#A589AE"/>
<path transform="translate(336,180)" d="m0 0 2 2-7 7-12 17-9 17-5 15-2 5-2 13v32l3 15 4 11 10 21 4 5-2 4-6-8-11-23-5-17-2-20v-10l2-19 4-18 7-16 10-16 4-5 7-6 5-5z" fill="#855C90"/>
<path transform="translate(414,139)" d="m0 0 26 1 6 2v1h-6v2l8 1 16 4 12 5 13 7 14 10 13 12-1 2-5-5-5-3-11-9-18-11-17-7-21-4-12-1h-13l-16 1-3-1-25 7-7 2v2l-5 3-8 2 2-3h4l1-3 9-5 10-4 9-3 17-4z" fill="#CCBDD1"/>
<path transform="translate(316,342)" d="m0 0 5 5-1-3 1-2 3 1 9 11 10 10 14 10 8 4-4 1 8 5-2 1 3 2-2 1-10-4-10-6-3-1-4-4-8-6-11-12-2-6-4-5z" fill="#C4B3CB"/>
<path transform="translate(358,134)" d="m0 0h4v2l-10 4-16 10-12 9-16 16-10 15-10 18-8 21-4 16h-1v-15l6-17 6-14 4-5 1-3h2l2-5 10-14 14-15 11-9 4-2h3v-2l5-1 1-3 7-3h4v-2z" fill="#E7E1EA"/>
<path transform="translate(413,145)" d="m0 0h13l19 2 9 2v2l-17-1h-35l-16 4-11 3-12 6-8 5-12 9-4 4-4 1-5 5-6 5 2-5 12-12 17-12 16-9 11-4 20-4z" fill="#6A3976"/>
<path transform="translate(204,488)" d="m0 0 8 2-3 3-3 1 1 5 8 9-1 4h-2l-2 4-3 4h-3l-2-5-5-4v-2l-6-1-1 2v-2l-2-1v-5l10-9h2v-2z" fill="#A78CAF"/>
<path transform="translate(276,308)" d="m0 0 2 2 3 8 5 5 4 9v6l4 7-1 6-3 3-5-1-4-8-3-11-2-1-2-8 1-1v-11z" fill="#BBA7C3"/>
<path transform="translate(427,154)" d="m0 0h8l19 4 16 6 7 4-2 1-4-1 16 10 11 9 8 9-1 2-5-3-8-8-7-5v-2l-5-2-14-8-7-3-13-4-13-2 4-3h-5z" fill="#DCD4E1"/>
<path transform="translate(278,397)" d="m0 0h2l3 4-7 2-4 2-5 5-14 12-8 7-11 10-8 7-10 8-7 6h-2v2l-7 6h-2v2l-8 6-16 16-5 6-3 5-1 7h-1l-1-5h-1v-7l2-2v2l6-4 7-9 12-11 8-7 4-5 5-4 5-3 7-6h2l2-4 13-13 10-8 13-10 10-9 5-4-2-2z" fill="#D1C4D6"/>
<path transform="translate(248,451)" d="m0 0 4 2 8 9 2 3v3l-9 7-4-1-7-6-7-3v-4l3-2 2 1v-2z" fill="#AA90B2"/>
<path transform="translate(471,173)" d="m0 0 6 2 8 5v2l4 2 10 9 8 8 4 7-4-2h-3l-1 2-5-1-4-7-1-8-2-5-6-2 1 5-3 2-9-7-5-7z" fill="#300E3C"/>
<path transform="translate(272,225)" d="m0 0 3 1 1 4v22l-1-3-3 2-1 7v26l-4 1-2-12-1-14 3-16z" fill="#BCA8C4"/>
<path transform="translate(340,558)" d="m0 0h1v7l-6 16-5 11-9 23v8h16v1h-20l-2-1v-8l6-17 8-16 10-22z" fill="#F5F3F7"/>
<path transform="translate(280,423)" d="m0 0 2 1v3l4 2 7 6-1 5-8 7-7-6-7-5-3-2 9-8z" fill="#A589AE"/>
<path transform="translate(414,150)" d="m0 0h10l2 2 6 1-3 2 3 2h6l1 3-31 1-14 2 1-2-11 2-9 2 4-3 14-4 11-2 8-3v-2z" fill="#F5F3F7"/>
<path transform="translate(454,150)" d="m0 0 7 1 19 8 15 10 10 8 11 11 7 8 8 11 8 16 5 14-1 2-5-5-4-13-7-14-9-13-12-13-12-10-15-9-21-8-8-2z" fill="#8A6394"/>
<path transform="translate(315,155)" d="m0 0h2l-2 4-9 9-2 4 2-1-2 5-10 15h-2l-1 5-4 5-5 12-5 14h-3l-1-3 8-20 10-19 10-14 11-12z" fill="#93709D"/>
<path transform="translate(319,368)" d="m0 0h2l1 5 2 1-8 6-15 14-3 1-3 4-6 1-2-2 1-3 11-9 13-12z" fill="#DBD1DF"/>
<path transform="translate(542,253)" d="m0 0h1v31l-2 11-2-3-5 12-4 6-1-3 3-9 4-23v-19h2l2 9 1 9z" fill="#F1EEF3"/>
<path transform="translate(394,145)" d="m0 0 3 1-2 2-16 4-9 4-15 8-14 10-9 8-4-1 1-4 12-9 2-3h3v-2l6-3 6-2 4-1v-2l7-3z" fill="#D9CFDD"/>
<path transform="translate(335,197)" d="m0 0h3l-2 4-10 16-6 12-5 14-2 11h-1l-1-5-2 3 1-9 5-16 8-15 6-8z" fill="#DBD1DF"/>
<path transform="translate(316,342)" d="m0 0 5 5-1-3 1-2 3 1 9 11 10 10 14 10 8 4-4 1-6-2-11-7-10-9-2-2h-3l-7-7-6-8z" fill="#AC92B4"/>
<path transform="translate(327,179)" d="m0 0 1 2 3 1-6 8-10 15-6 7-7 14-2-3 7-15 3-7 8-11 5-5 3-5z" fill="#B6A0BE"/>
<path transform="translate(1475,305)" d="m0 0h8l12 5 2 4h-40l1-3 2-1 15-1v-3z" fill="#582165"/>
<path transform="translate(377,152)" d="m0 0h2v2h-2v2l-14 7-8 5-12 9-4 4-4 1-5 5-6 5 2-5 12-12 17-12 16-9z" fill="#5A2766"/>
<path transform="translate(414,139)" d="m0 0 26 1v1l-37 1-8 1-1 3-25 7-7 2v2l-5 3-8 2 2-3h4l1-3 9-5 10-4 9-3 17-4z" fill="#A88DB1"/>
<path transform="translate(349,401)" d="m0 0 10 3 2-1 4 2h-3l3 4-13 2-10 6h-6l6-9 5-5z" fill="#AD94B5"/>
<path transform="translate(659,349)" d="m0 0 4 4 11 18 6 11 12 19 3 7 1 10-5 4 1-3v-8l-5-12-11-18-7-14-10-16z" fill="#F5F3F7"/>
<path transform="translate(218,449)" d="m0 0 2 1-11 10h-2v2l-7 6h-2v2l-8 6-16 16-5 6-3 5-1 7h-1l-1-5h-1v-7l2-2v2l6-4 7-9 12-11 8-7 4-5 5-4 5-3z" fill="#CCBED2"/>
<path transform="translate(1024,349)" d="m0 0h14l8 5 5 6 45 1v1l-6 1-32 1-7-1-8-7-4-3-4-1-14-1z" fill="#571F64"/>
<path transform="translate(385,387)" d="m0 0 9 1 7 2h32l6-1h8l-3 2-8 2-8 1h-23l-18-4-2-1z" fill="#5F2A6C"/>
<path transform="translate(298,307)" d="m0 0 2 1 4 12 3 5-1-5 3 4 9 17 5 6-1 2-4-4 4 5v2h-2l-9-13-5-9-6-11-2-7z" fill="#D0C3D6"/>
<path transform="translate(652,257)" d="m0 0h1v18l-3 20-5 16v12l3 6-1 2-5-10-1-3v-9l6-15 3-13z" fill="#F5F3F7"/>
<path transform="translate(442,163)" d="m0 0h7l9 4 4 5 1 6-7-1-6-3-5-9z" fill="#2F0D3B"/>
<path transform="translate(302,303)" d="m0 0h2l4 11 10 21 4 5-2 4-6-8-11-23-2-9z" fill="#9A79A3"/>
<path transform="translate(296,276)" d="m0 0h1l2 20 6 19 2 5 2 10-3-4-5-12-2-6-2 1-3-10 1-6z" fill="#B7A2BE"/>
<path transform="translate(469,168)" d="m0 0 6 2 16 11 12 11 3 4-1 2-5-3-8-8-7-5v-2l-5-2-7-4v-2z" fill="#C6B5CC"/>
<path transform="translate(356,416)" d="m0 0 6 1 1 2h-7l-12 11-9 6-5-1-5-5-6-1-2 1 2-5 3-1 10 6 5 1 16-12z" fill="#CBBDD1"/>
<path transform="translate(411,370)" d="m0 0 7 1 2 2 9 1v2l4 1-2 1h-23l-1-7z" fill="#341141"/>
<path transform="translate(511,211)" d="m0 0 4 1 5 10v5h-2l-2 4-3-1-2-5z" fill="#300E3C"/>
<path transform="translate(496,342)" d="m0 0h5l-2 4-7 7-7 1-1-4 3-5h2v-2z" fill="#310E3D"/>
<path transform="translate(509,321)" d="m0 0h7l-1 5-5 7-9 1 2-6 3-5z" fill="#300E3C"/>
<path transform="translate(511,204)" d="m0 0 5 5 8 13 4 9v5l-3 1-6-15-6-11z" fill="#C7B7CD"/>
<path transform="translate(294,250)" d="m0 0 2 6v42l-2-2-1-5v-40z" fill="#E4DDE7"/>
<path transform="translate(409,156)" d="m0 0 2 2 15 1v1l-18 1-14 2 1-2-11 2-9 2 4-3 14-4z" fill="#E0D8E4"/>
<path transform="translate(454,150)" d="m0 0 7 1 19 8 12 8v3l-13-8-21-8-8-2z" fill="#8D6898"/>
<path transform="translate(358,134)" d="m0 0h4v2l-10 4-16 10-7 4-4-1 8-6 5-1v-2l5-1 1-3 7-3h4v-2z" fill="#DCD3E0"/>
<path transform="translate(286,285)" d="m0 0 2 4 4 21 4 10 1 8-3-4-5-12-3-10-1-16z" fill="#8F6A99"/>
<path transform="translate(517,187)" d="m0 0 5 4 10 14 11 23 2 8-3-1-4-12-10-19-7-9-3-5z" fill="#C4B3CA"/>
<path transform="translate(381,364)" d="m0 0h2 1l7 2 5 3v5l7 1v1l-9-1-10-3-1-2h2v-2l-4-2z" fill="#300E3C"/>
<path transform="translate(191,504)" d="m0 0 7 2v-2h3l7 9-1 5-2 1-2-1-1-3-5-4v-2l-6-2z" fill="#BEAAC4"/>
<path transform="translate(272,225)" d="m0 0 3 1 1 4-4 18-2 2-3-2 1-8z" fill="#AC93B4"/>
<path transform="translate(529,267)" d="m0 0h1v13l-3 3-5 1v-11l4-4h3z" fill="#2E0C3A"/>
<path transform="translate(215,482)" d="m0 0 6 3 5 4v2l4 2 2 4-5 1-1-3-4-1-8-8h2z" fill="#C2B1C9"/>
<path transform="translate(207,485)" d="m0 0 3 3 5 3 5 5 4 3v4l-4 1-9-10-6-2 3-2-3-3z" fill="#C2B1C9"/>
<path transform="translate(359,378)" d="m0 0 11 2 11 4 3 2-8-1 4 2v2h-5l-4 1-2-2-3-2-3-3h3l-7-4z" fill="#8D6797"/>
<path transform="translate(293,311)" d="m0 0 3 4 5 12 3 6 2 9-1 3-8-14-3-13z" fill="#491856"/>
<path transform="translate(278,397)" d="m0 0h2l3 4-7 2-4 2-5 5-14 12-2-2 10-9 10-8 2-2-2-2z" fill="#D9CFDD"/>
<path transform="translate(671,438)" d="m0 0h5l1 2-6 2v2h-2v9l-2 9h-2v-13l-1-8z" fill="#673573"/>
<path transform="translate(480,159)" d="m0 0 6 1 17 12 13 12-1 2-5-5-5-3-11-9-14-9z" fill="#BEACC6"/>
<path transform="translate(1199,316)" d="m0 0h1v77h-1l-1-65-1-6z" fill="#561E63"/>
<path transform="translate(297,187)" d="m0 0 1 3-10 18-1 3h-2l-1-4 3-8 4-5 1-3h2v-2z" fill="#E2DAE5"/>
<path transform="translate(315,155)" d="m0 0h2l-2 4-9 9-2 4 2-1-2 5-4 6h-4l-3 2 2-5 11-14 7-7z" fill="#8E6999"/>
<path transform="translate(1295,436)" d="m0 0h2l1 16 40 1v1h-42l-2-4v-10l-2-1z" fill="#6E3E7A"/>
<path transform="translate(279,426)" d="m0 0 5 1 9 8-1 4-9-4-6-5v-2h2z" fill="#BEACC6"/>
<path transform="translate(1153,370)" d="m0 0 1 4-1 7-1 66h-1v-71z" fill="#5D286A"/>
<path transform="translate(522,233)" d="m0 0 3 1 3 10v9l-1-2-3 1-2-2z" fill="#351141"/>
<path transform="translate(297,180)" d="m0 0 2 3-5 8h-2l-1 5-3 3h-2l-1-3 7-12z" fill="#9B7AA4"/>
<path transform="translate(526,293)" d="m0 0h1l-1 7-4 10-6-4 2-5 2-3 4-2z" fill="#300E3C"/>
<path transform="translate(232,468)" d="m0 0 5 2 6 7 1 5-5-1-7-7-1-3z" fill="#C6B6CD"/>
<path transform="translate(311,248)" d="m0 0h1l-1 14-1 10h-1l-1 7h-1v-21l1-7z" fill="#F6F5F8"/>
<path transform="translate(343,165)" d="m0 0h2l-3 6 2 1-9 7-3 3-4-1 1-4 12-9z" fill="#CFC2D5"/>
<path transform="translate(468,166)" d="m0 0 5 1 9 4 11 8 1 3-4-1-17-11z" fill="#E5DFE9"/>
<path transform="translate(198,500)" d="m0 0 4 2 7 7 4 2-1-5 3 3-1 3h-2l-2 4-3 4h-3l1-2 2-2-1-5-7-8-2-2z" fill="#8A6495"/>
<path transform="translate(232,463)" d="m0 0 4 2 1 2-1 2-3 1-1 2 1 3-3 1-1-2-6-1 1-3z" fill="#9F81A8"/>
<path transform="translate(1529,311)" d="m0 0h15l3 1 16 1v1h-39l1-2z" fill="#561E63"/>
<path transform="translate(1024,349)" d="m0 0h14l8 5 5 6v2l-4-2-8-7-4-1-14-1z" fill="#5E296B"/>
<path transform="translate(347,374)" d="m0 0 5 2 11 4 6 4-2 1 3 2-2 1-10-4-2-4-5-2-4-2z" fill="#BBA7C2"/>
<path transform="translate(468,149)" d="m0 0 6 1 12 6v2h2l-1 2-5-1-7-4-8-3z" fill="#A98FB2"/>
<path transform="translate(275,360)" d="m0 0 4 4 4 6v2l8-4 2 1-9 8-3-1-6-13z" fill="#DDD4E1"/>
<path transform="translate(377,146)" d="m0 0 2 1-4 2-1 3-12 3v2l-5 3-8 2 2-3h4l1-3 9-5 10-4z" fill="#AC92B4"/>
<path transform="translate(391,148)" d="m0 0 11 1-3 2-11 2-8 3h-3v-2h2v-3z" fill="#784B83"/>
<path transform="translate(213,487)" d="m0 0 5 2 5 5 3 1 2 4-4 3v-3l-4-2-2-4-4-2z" fill="#876092"/>
<path transform="translate(321,342)" d="m0 0 3 1 8 10-1 3h-3l-5-5-2-5-1-2z" fill="#B6A0BD"/>
<path transform="translate(296,276)" d="m0 0h1l2 20 1 8-3 1v-2h-2l-1-7 1-3z" fill="#C9BACF"/>
<path transform="translate(233,475)" d="m0 0 7 6 4 1-1-5 3 2-1 5-6 5 1-4-4-2-4-5z" fill="#8C6696"/>
<path transform="translate(311,364)" d="m0 0 3 1-5 5-12 11-4 3-2-1 15-15z" fill="#896193"/>
<path transform="translate(217,478)" d="m0 0 6 1-4 3-1 2h-2v2l-3 3-6-1 3-5 4-4z" fill="#A387AC"/>
<path transform="translate(321,352)" d="m0 0 4 2 5 5h3l2 3h-2l2 4 6 5h-3l-8-7-9-11z" fill="#C2B1C9"/>
<path transform="translate(298,307)" d="m0 0 2 1 4 12 8 16-1 2-4-5-7-14-2-7z" fill="#DBD1DF"/>
<path transform="translate(525,575)" d="m0 0v3l-2 3h-2l-4 10-1 17h-1l-1-13 2-10 3-5z" fill="#F5F3F7"/>
<path transform="translate(447,369)" d="m0 0h6l-3 4-1 2-4 1h-10l3-4 7-2z" fill="#33103F"/>
<path transform="translate(518,158)" d="m0 0 4 2 10 10 9 11 4 5v2l-3-1-8-11-12-13z" fill="#D6CBDB"/>
<path transform="translate(358,121)" d="m0 0 2 1-5 5-15 9-3-1 3-1v-2h3v-2h3v-2l5-1v-2z" fill="#C3B2CA"/>
<path transform="translate(472,365)" d="m0 0 4 1-10 6-8 3h-5l3-3 15-6z" fill="#F2EFF4"/>
<path transform="translate(869,311)" d="m0 0 2 1-5 5-1 16-3-1v-13z" fill="#592665"/>
<path transform="translate(281,207)" d="m0 0 1 3-2 9-4 9-3-1 1-6 1-2h2l3-10z" fill="#9F81A8"/>
<path transform="translate(411,379)" d="m0 0 18 2-4 2-3 1-14-1 1-3z" fill="#F7F5F8"/>
<path transform="translate(394,145)" d="m0 0 3 1-2 2-16 4-10 3 3-3 18-6z" fill="#DFD8E3"/>
<path transform="translate(229,480)" d="m0 0 7 2 4 3-1 4-5-1-5-5z" fill="#C4B3CA"/>
<path transform="translate(252,455)" d="m0 0 4 2 6 8v2l-5-1-4-5-2-1z" fill="#B9A4C1"/>
<path transform="translate(237,431)" d="m0 0m-2 1 2 1-5 6-6 7-6 4 1-4z" fill="#D3C8D8"/>
<path transform="translate(358,134)" d="m0 0h4v2l-10 4-9 5 1-5 7-3h4v-2z" fill="#CEC1D4"/>
<path transform="translate(870,417)" d="m0 0 18 1v2l3 1h-15l-6-3z" fill="#602C6D"/>
<path transform="translate(273,249)" d="m0 0h2v32h-1l-2-31z" fill="#E3DDE7"/>
<path transform="translate(201,500)" d="m0 0 6 2 5 4 1 5-5-2-7-7z" fill="#C8B8CE"/>
<path transform="translate(874,309)" d="m0 0h11l6 3-2 2-8-2h-8l-1-2z" fill="#6E3E79"/>
<path transform="translate(377,152)" d="m0 0h2v2h-2v2l-12 6-2-1 5-5z" fill="#5D296A"/>
<path transform="translate(298,227)" d="m0 0h3l-1 7-4 11h-2l2-11z" fill="#CABCD0"/>
<path transform="translate(307,173)" d="m0 0 1 2-9 13h-3l2-5 5-7z" fill="#F0ECF1"/>
<path transform="translate(470,359)" d="m0 0 4 2-2 3-9 2 1-5z" fill="#2D0C39"/>
<path transform="translate(313,330)" d="m0 0 3 1 6 9-2 4-6-8z" fill="#9C7DA5"/>
<path transform="translate(302,303)" d="m0 0h2l4 11-1 5-3-4-3-9z" fill="#916D9B"/>
<path transform="translate(307,208)" d="m0 0h2l-1 6-6 12-2-3z" fill="#C8B8CE"/>
<path transform="translate(289,307)" d="m0 0 3 3 4 10 1 8-3-4-5-12z" fill="#9979A3"/>
<path transform="translate(253,451)" d="m0 0 6 2 2 4-2 2 3 4-4-2-5-6z" fill="#3C1249"/>
<path transform="translate(341,173)" d="m0 0m-1 1m-2 1 2 1-2 3 1 2-4 1-5 5-6 5 2-5z" fill="#673473"/>
<path transform="translate(469,168)" d="m0 0 6 2 8 6 2 4-5-2-7-4v-2z" fill="#CCBDD1"/>
<path transform="translate(163,496)" d="m0 0 1 2 4-2v5l-2 2-1 7h-1l-1-5h-1v-7z" fill="#C4B3CB"/>
<path transform="translate(363,383)" d="m0 0 10 2 7 2v2h-5l-4 1-2-2-3-2z" fill="#9D7EA6"/>
<path transform="translate(546,190)" d="m0 0 4 4 7 14v2h-2l-8-16z" fill="#D4C8D9"/>
<path transform="translate(369,152)" d="m0 0 3 1-2 2-4 3-7 3v-3l3-1v-2z" fill="#D3C7D8"/>
<path transform="translate(202,496)" d="m0 0 4 1 6 7v2l-3-1v-2l-9-2-1-4 2 1z" fill="#AB91B4"/>
<path transform="translate(250,448)" d="m0 0 5 2-2 1-1 3-4-2-6 6h-2v2h-2l1-3z" fill="#8B6596"/>
<path transform="translate(321,192)" d="m0 0 1 2-8 12-1-2 1-2-2-1 3-3 2-4 2 1z" fill="#CEC0D3"/>
<path transform="translate(274,234)" d="m0 0h1l1 18-1-3-3 1v-7z" fill="#CCBED2"/>
<path transform="translate(517,187)" d="m0 0 5 4 8 11-1 4-7-10-4-6z" fill="#BAA5C1"/>
<path transform="translate(284,432)" d="m0 0h5l4 3-1 4-9-4z" fill="#B8A3C0"/>
<path transform="translate(557,323)" d="m0 0 2 4-7 13h-2l2-6z" fill="#B6A0BD"/>
<path transform="translate(511,204)" d="m0 0 5 5 4 6-2 4-5-8z" fill="#CCBDD1"/>
<path transform="translate(432,141)" d="m0 0h10l4 2h-6v2l-8-1z" fill="#BDA9C4"/>
<path transform="translate(482,402)" d="m0 0 2 1-3 3-10 4-2-1 3-3z" fill="#C2B0C8"/>
<path transform="translate(468,166)" d="m0 0 5 1 9 4 1 3-5-1-10-6z" fill="#EDE9EF"/>
<path transform="translate(407,158)" d="m0 0 19 1v1l-25 1-1-2z" fill="#DCD2E0"/>
<path transform="translate(276,438)" d="m0 0 4 1 4 2h2l-1 5h-3l-6-7z" fill="#B9A4C0"/>
<path transform="translate(298,302)" d="m0 0 3 1 2 8-2 3-2-6-2 1-1-6z" fill="#BBA7C2"/>
<path transform="translate(315,155)" d="m0 0h2l-2 4-9 9-3 4-2-1 11-12z" fill="#8A6395"/>
<path transform="translate(222,472)" d="m0 0m-1 1m-1 1 3 2 4 2v2l-12-1z" fill="#B7A2BF"/>
<path transform="translate(292,394)" d="m0 0h3l1 4-7 2-2-2v-2z" fill="#E5DFE9"/>
<path transform="translate(1153,370)" d="m0 0 1 4-1 7-1 13h-1v-18z" fill="#825A8D"/>
<path transform="translate(325,358)" d="m0 0 5 5 1 2h-3v5l-1-2h-3v-5z" fill="#855C90"/>
<path transform="translate(310,202)" d="m0 0h4v5l-5 3-1-6z" fill="#BDAAC4"/>
<path transform="translate(464,152)" d="m0 0 7 1 7 3 4 3-6-1-12-5z" fill="#CBBCD0"/>
<path transform="translate(276,230)" d="m0 0 2 1v7l-2 7h-1v-14z" fill="#EBE6ED"/>
<path transform="translate(473,152)" d="m0 0 15 6-1 2-5-1-7-4-4-2z" fill="#B19AB9"/>
<path transform="translate(390,414)" d="m0 0h15l-1 3-11-1z" fill="#C1AFC8"/>
<path transform="translate(314,239)" d="m0 0 1 4-2 11h-1l-1-5-2 3 1-6h2z" fill="#E4DDE7"/>
<path transform="translate(354,373)" d="m0 0 5 2 6 3-4 1-6-2-3-3z" fill="#A78CAF"/>
<path transform="translate(528,310)" d="m0 0h1v7l-5 5-1-2z" fill="#F5F3F7"/>
<path transform="translate(191,504)" d="m0 0 7 2v-2h3l1 3-1 2-10-2z" fill="#BAA6C2"/>
<path transform="translate(650,503)" d="m0 0 2 1v7l-1 5-2-4v-8z" fill="#622F6F"/>
<path transform="translate(851,374)" d="m0 0 10 2 6 2v1h-7l-7-3z" fill="#622F6F"/>
<path transform="translate(504,175)" d="m0 0 5 2 7 7-1 2-5-5-5-3z" fill="#B9A5C1"/>
<path transform="translate(462,146)" d="m0 0 7 2-3 4-7-3 3-1z" fill="#A285AB"/>
<path transform="translate(172,473)" d="m0 0 3 2-7 6-3-1z" fill="#431650"/>
<path transform="translate(249,468)" d="m0 0 3 4 2-1-1 4-4-1-3-3v-2z" fill="#BCA8C4"/>
<path transform="translate(205,459)" d="m0 0 2 3-8 6-1-3z" fill="#D0C4D6"/>
<path transform="translate(394,145)" d="m0 0 3 1-2 2-10 2 1-3z" fill="#D5C9DA"/>
</svg>
